<svg xmlns="http://www.w3.org/2000/svg" enable-background="new 0 0 4500 3000" viewBox="0 0 4500 3000" id="business-partnership"><g><defs><filter id="a" width="3615.1" height="268.6" x="476.7" y="2463" filterUnits="userSpaceOnUse"><feFlood flood-color="#fff" flood-opacity="1" result="back"></feFlood><feBlend in="SourceGraphic" in2="back"></feBlend></filter></defs><mask id="b" width="3615.1" height="268.6" x="476.7" y="2463" maskUnits="userSpaceOnUse"><g filter="url(#a)"><linearGradient id="c" x1="2284.261" x2="2284.261" y1="2159.169" y2="2727.639" gradientUnits="userSpaceOnUse"><stop offset="0" stop-color="#fff"></stop><stop offset=".739"></stop></linearGradient><path fill="url(#c)" fill-rule="evenodd" d="M476.7 2463h3615.1v268.6H476.7z" clip-rule="evenodd" mask="url(#b)"></path></g></mask><linearGradient id="d" x1="2284.261" x2="2284.261" y1="2159.169" y2="2727.639" gradientUnits="userSpaceOnUse"><stop offset="0" stop-color="#bb9a7d"></stop><stop offset=".739" stop-color="#d1bba4"></stop><stop offset="1" stop-color="#fbf4ec"></stop></linearGradient><path fill="url(#d)" fill-rule="evenodd" d="M476.7 2463h3615.1v268.6H476.7z" clip-rule="evenodd"></path><path fill="#e89b23" fill-rule="evenodd" d="m4091.8 2466.5-3310.4-6.7c680.9-42.9 847.5-649.3 1162.3-690.6 362.4-47.6 486.1 636.7 966.4 295.3 286.9-204 332.9 368.8 1181.7 402z" clip-rule="evenodd" opacity=".39"></path><g opacity=".66"><path fill="#fff" d="M2702.9 2465.6H2362v-2.7c0-282-229.4-511.5-511.5-511.5S1339.1 2181 1339.1 2463v2.7H998.2v-2.7c0-470 382.4-852.4 852.4-852.4S2703 1993 2703 2463v2.6zm-335.6-5.3h330.3c-1.4-465.9-380.9-844.4-847-844.4s-845.6 378.5-847 844.4h330.3c1.4-283.7 232.7-514.1 516.7-514.1s515.3 230.4 516.7 514.1z"></path></g><g opacity=".66"><path fill="#fff" fill-rule="evenodd" d="M2005.2 2463c0-302.9 245.6-548.5 548.5-548.5s548.5 245.6 548.5 548.5h-216.6c0-183.3-148.6-331.9-331.9-331.9-183.3 0-331.9 148.6-331.9 331.9h-216.6z" clip-rule="evenodd"></path></g><circle cx="3545.8" cy="1265.3" r="176.7" fill="#fff" fill-rule="evenodd" clip-rule="evenodd" opacity=".24" transform="rotate(-45.001 3545.806 1265.321)"></circle><g opacity=".53"><path fill="#e89b23" d="M3656.3 1213.1c-68.6 0-124.5-55.8-124.5-124.5 0-68.6 55.8-124.5 124.5-124.5 68.6 0 124.5 55.8 124.5 124.5-.1 68.6-55.9 124.5-124.5 124.5zm0-243.6c-65.7 0-119.2 53.5-119.2 119.2s53.5 119.2 119.2 119.2 119.2-53.5 119.2-119.2c-.1-65.8-53.5-119.2-119.2-119.2z"></path></g><g opacity=".7"><path fill="#fff" d="M3998.6 1686c-53.5 0-97-43.5-97-97s43.5-97 97-97 97 43.5 97 97-43.5 97-97 97zm0-188.7c-50.5 0-91.7 41.1-91.7 91.7 0 50.5 41.1 91.7 91.7 91.7s91.7-41.1 91.7-91.7-41.1-91.7-91.7-91.7z"></path></g><g opacity=".7"><path fill="#fff" fill-rule="evenodd" d="M3476.9 1044.2c17.7 0 32.2-14.5 32.2-32.2 0-17.7-14.5-32.2-32.2-32.2s-32.2 14.5-32.2 32.2c0 17.7 14.4 32.2 32.2 32.2z" clip-rule="evenodd"></path></g><path fill="#fff" d="M3809.3 2354c-174.1-.3-315.5-142-315.5-315.9 0-173.9 141.4-315.6 315.3-315.9h.6c173.9.3 315.3 142.1 315.3 315.9 0 173.9-141.4 315.6-315.3 315.9h-.4l.1-2.7-.1 2.7zm-.2-629.1v2.7c-170.9.3-310 139.7-310 310.6 0 170.9 139.1 310.3 310 310.6l.3 2.7v-2.7h.2c171-.3 310.1-139.7 310.1-310.6 0-170.9-139.1-310.3-310-310.6l-.6-2.7zm.3 505.4c-105.8-.2-191.9-86.4-191.9-192.2s86.1-192 191.9-192.2c105.8.2 191.9 86.4 191.9 192.2s-86.1 192-191.9 192.2zm0-379c-102.9.2-186.6 84-186.6 186.9s83.7 186.7 186.6 186.9c102.9-.2 186.6-84 186.6-186.9 0-103-83.7-186.8-186.6-186.9z" opacity=".55"></path><circle cx="546" cy="1348.2" r="163" fill="#e89b23" fill-rule="evenodd" clip-rule="evenodd" opacity=".21" transform="rotate(-45.001 545.977 1348.217)"></circle><path fill="#fff" fill-rule="evenodd" d="M823.4 1509.7h.3c185.6-.4 336-150.9 336-336.6 0-185.7-150.4-336.3-336-336.6h-.6c-185.6.4-336 150.9-336 336.6 0 185.7 150.4 336.3 336 336.6h.3zM620 1173.1c0-112.4 91-203.5 203.3-203.7 112.3.2 203.3 91.3 203.3 203.7 0 112.4-91 203.5-203.3 203.7-112.3-.2-203.3-91.3-203.3-203.7z" clip-rule="evenodd" opacity=".57"></path><g opacity=".7"><circle cx="2259.2" cy="1487.2" r="94.3" fill="#fff" fill-rule="evenodd" clip-rule="evenodd" transform="rotate(-45.001 2259.2 1487.197)"></circle></g><g opacity=".7"><circle cx="1088.1" cy="573.8" r="51.8" fill="#fff" fill-rule="evenodd" clip-rule="evenodd" transform="rotate(-45.001 1088.132 573.81)"></circle></g><g opacity=".7"><path fill="#fff" d="M2022.7 2088.5c-53.5 0-97-43.5-97-97s43.5-97 97-97 97 43.5 97 97-43.5 97-97 97zm0-188.6c-50.5 0-91.7 41.1-91.7 91.7 0 50.5 41.1 91.7 91.7 91.7 50.5 0 91.7-41.1 91.7-91.7s-41.2-91.7-91.7-91.7z"></path></g></g><g><g><path fill="#6c3f29" d="M3959.7 2226.8h-1326v-617.9h1326v617.9zm-1320.8-5.3h1315.4v-607.3H2638.9v607.3z"></path><path fill="#fbf4ec" fill-rule="evenodd" d="M3957 2463h-60.7l-60.6-238.9H3957z" clip-rule="evenodd"></path><path fill="#6c3f29" d="M3959.7 2465.6h-65.4l-62-244.1h127.4v244.1zm-61.3-5.3h56v-233.5h-115.3l59.3 233.5z"></path><path fill="#fbf4ec" fill-rule="evenodd" d="M2636.3 2463h60.7l60.6-238.9h-121.3z" clip-rule="evenodd"></path><path fill="#6c3f29" d="M2699 2465.6h-65.4v-244.1H2761l-62 244.1zm-60.1-5.3h56l59.3-233.5h-115.3v233.5z"></path><path fill="#2b3b77" fill-rule="evenodd" d="M3315.7 1649.7h603.1v536.2h-603.1z" clip-rule="evenodd"></path><path fill="#6c3f29" d="M3280.2 2188.6h-608.4v-541.5h608.4v541.5zm-603.1-5.3h597.8v-530.9h-597.8v530.9z"></path><path fill="#fff" d="M3411 1812.1c-20.1 0-36.5-16.4-36.5-36.5s16.4-36.5 36.5-36.5 36.5 16.4 36.5 36.5-16.4 36.5-36.5 36.5zm0-67.7c-17.2 0-31.2 14-31.2 31.2s14 31.2 31.2 31.2 31.2-14 31.2-31.2-14-31.2-31.2-31.2z"></path><path fill="#6c3f29" d="M3182.3 1812.1c-20.1 0-36.5-16.4-36.5-36.5s16.4-36.5 36.5-36.5 36.5 16.4 36.5 36.5c-.1 20.1-16.4 36.5-36.5 36.5zm0-67.7c-17.2 0-31.2 14-31.2 31.2s14 31.2 31.2 31.2 31.2-14 31.2-31.2c-.1-17.2-14-31.2-31.2-31.2z"></path><path fill="#6c3f29" fill-rule="evenodd" d="M3730.9 1611.5h-78.6c0-30.6-54.7-23.7-58.9-88.7-6.1-93.7 43.3-84.7 60.9-180.8h74.6c17.6 96.1 66 88.7 60.9 180.8-3.6 64-58.9 58.1-58.9 88.7z" clip-rule="evenodd"></path><path fill="#fbf4ec" fill-rule="evenodd" d="M3594.5 1532.9c-.5-3.2-.9-6.5-1.2-10.1-.1-1.5-.2-2.9-.2-4.3H3790c-.1 1.4-.1 2.8-.2 4.3-.2 3.6-.6 6.9-1.1 10.1h-194.2zm-1.6-24.8c0-11.1.9-20.5 2.4-28.8h192c1.7 8.3 2.7 17.8 2.8 28.8h-197.2z" clip-rule="evenodd"></path><path fill="#2b3b77" fill-rule="evenodd" d="M3548.8 1420.5h44.1v191h-44.1z" clip-rule="evenodd"></path><path fill="#e89b23" fill-rule="evenodd" d="M3504.7 1374.8h44.1v236.7h-44.1z" clip-rule="evenodd"></path><path fill="#6c3f29" d="M3551.4 1614.2H3502v-242h49.4v242zm-44-5.3h38.8v-231.4h-38.8v231.4z"></path><path fill="#fbf4ec" fill-rule="evenodd" d="M3460.6 1384.7h44.1v226.8h-44.1z" clip-rule="evenodd"></path><path fill="#6c3f29" d="M3507.4 1614.2H3458v-232.1h49.4v232.1zm-44.1-5.3h38.8v-221.5h-38.8v221.5z"></path><path fill="#739157" fill-rule="evenodd" d="M3233.8 1566.9h226.8v44.1h-226.8z" clip-rule="evenodd"></path><path fill="#6c3f29" d="M3463.3 1613.7h-232.1v-49.4h232.1v49.4zm-226.8-5.3H3458v-38.8h-221.5v38.8z"></path><path fill="#6c3f29" d="M3421.2 1569.6h-232.1v-49.4h232.1v49.4zm-226.8-5.3h221.5v-38.8h-221.5v38.8z"></path></g><path fill="#f0afab" fill-rule="evenodd" d="m1958 1094.5 126.3 12c19.1 1.8 52.6-15.8 68.1 1.9 4.5 5.1 2.6 17.1 5.3 20.6 25 33 53.5 24.4 58.9 31.2 8.3 10.4-24.9 26.4-63.6 19.1-34.8-6.6-52.2-21.4-81.2-18.7l-103.4-3.4-10.4-62.7zM1843.6 1337.2l76.2 101.4c14.7 6.7 45.7 27.3 45.2 34.5-1.6 7.4-36.9-21.9-37.4-14.3 17.6 31.7 35.8 75.3 30.8 79.1-3.5 2.7-21-39.5-23.8-37.8-4.7 2.7 21 57.3 13.5 57.9-6.9.5-25.9-50.9-28.3-47.7-4.8-2.9 19.1 43.7 13 47.1-3.5 2-17.2-26.7-29.3-44.1-12-17.3 8.4 40.1 4.5 40.8-11.3 2.1-29-61.2-36.6-88.4l-67.1-78.7 39.3-49.8z" clip-rule="evenodd"></path><path fill="#739157" fill-rule="evenodd" d="m1766.9 1098.4 135.3 277.7c16.8 26-58.8 78.5-82.2 71.8-52.1-40.2-152.4-160.7-225.3-241.9-122.5-136.5-14.3-464.4 106.2-402.7 79.5 40.6 30.1 221.5 66 295.1z" clip-rule="evenodd"></path><path fill="#edb5b3" fill-rule="evenodd" d="m1884.2 2306.4 18.7 80.5 18.6 30.5-84.7-1.2-18.2-27.3-4.9-61.7z" clip-rule="evenodd"></path><path fill="#2b3b77" fill-rule="evenodd" d="M1818.6 2388.9c28.6 21.4 57.1 21.5 84.3 0l138.6 46c16.6 5.5 13.8 28.1.5 28.1h-243.1c-2.1-54.7 19.7-49.4 19.7-74.1z" clip-rule="evenodd"></path><path fill="#edb5b3" fill-rule="evenodd" d="m1546 2306.4 18.7 80.5 18.6 30.5-84.7-1.2-18.2-27.3-4.9-61.7z" clip-rule="evenodd"></path><path fill="#2b3b77" fill-rule="evenodd" d="M1480.4 2388.9c28.6 21.4 57.1 21.5 84.3 0l138.6 46c16.6 5.5 13.8 28.1.5 28.1h-243.1c-2.2-54.7 19.7-49.4 19.7-74.1z" clip-rule="evenodd"></path><path fill="#6c3f29" fill-rule="evenodd" d="M1460.7 1212.9 1448 2349.2c34.9 21.4 78.8 22 127.4-6.1l54.8-895.9 152.6 903.7c55.4 15.8 78.1 13.1 130.8-14.2L1753 1210.6l-292.3 2.3z" clip-rule="evenodd"></path><path fill="#552214" d="m1635.1 1383-1.7-5c42.1-14.3 39.4-72.7 39.4-73.3l5.3-.3c0 .7 2.9 63-43 78.6z"></path><path fill="#552214" d="M1585.7 1360.8h101.2v5.3h-101.2z" transform="rotate(-83.218 1636.347 1363.473)"></path><path fill="#739157" fill-rule="evenodd" d="M1441.9 1313.1c23.1 57.3 322.7 33.2 324.4-41.6.9-37.8-46.6-142-41.4-183.8 12.4-100.7 21.8-193.1-9-267.6-3.9-9.5-19-21.1-34-29.3-8.7-4.6-13.8-5.2-20.5-5.2 0 0-40.8.3-58.9 2.9-6.6.9-35.8 7.1-50.4 10.3-64.9 14.3-89.8 137.3-105.2 307.7-7.2 79.8-7 201.6-5 206.6z" clip-rule="evenodd"></path><path fill="#f0afab" fill-rule="evenodd" d="M1670.2 786.2c.3-3-18.2-7.9 13.1-52 4.8-6.8 17.3-2.3 18.8-7.8 3.9-14.7-10.7-36.7-4.4-53.8 4.4-12-16.6-19.8-32.4-23.6-25.9-6.3-70.9 9.9-55 68.2 3.8 14 15.4 29.5 14.8 69.1 0 12.6 8.3 27.6 19.1 27.7 14 .2 30.8-17.8 26-27.8z" clip-rule="evenodd"></path><path fill="#fff" d="M1662.6 1222.6c-29.6-64.6-19.9-120-9.6-178.6 11.3-63.9 22.9-130-9.2-220.1l2.8-1c32.4 90.8 20.1 160.3 9.3 221.7-10.2 58.1-19.9 113.1 9.3 176.8l-2.6 1.2z"></path><path fill="#425b2e" fill-rule="evenodd" d="m1625.2 785.2 19.1 28.9c-16.7.2-26.4 10-32 25.7l-4-52 16.9-2.6zM1668.4 783.5l-24.1 30.6c14.4 2.7 23.1 13.8 29.3 28.8l8.3-52-13.5-7.4z" clip-rule="evenodd"></path><path fill="#739157" fill-rule="evenodd" d="m1693.3 1028.9 315.7 45.7c30.7 4.5 20.3 96-.2 109.1-64.5 12.6-221.3 8.7-330.4 10-183.4 2.1-252.2-345-126.4-395 83-33 60.2 218.4 141.3 230.2z" clip-rule="evenodd"></path><path fill="#230e13" fill-rule="evenodd" d="M1698.6 683.2c-11.3 5.4-38.3-36.4-57.7 7.3-1.5 3.3-4.2 15.1-18.5 5.3s-17 15.3-2.7 14.4c14.3-.9 0 28.4-5.5 24.5-5.5-3.9-63.7-47.4 8.6-85.4 74.8-104.3 145 19.8 75.8 33.9z" clip-rule="evenodd"></path><path fill="#8bb762" d="m1753 1040.2-59.7-8.6c-4.7.4-40.6-.3-65.8-106.7-24.7-120.1-50-124-50.2-124.1l.1-5.3c3 0 29.6 3.7 55.2 128.2 25.2 106.8 59.9 102.6 60.2 102.5l.4-.1.4.1 60 8.7-.6 5.3zM1749.2 1303.5l-2.5-4.7c28.5-15.5 14.7-48.9 14.1-50.3l-15.4-54.2 5.1-1.4 15.3 53.9c0 .1 16 38.9-16.6 56.7z"></path><g opacity=".38"><path fill="#552214" fill-rule="evenodd" d="m1770.8 1334.8-7.8-50.3s-5.7 35-126.7 54.2c-121 19.2-177.4-11.8-177.4-11.8v45.9s80.6 18.4 166.3 11.8c1.8 18.7 5.1 62.5 5.1 62.5l29.7 176s38.9-201.9 70.6-263.3c14.6-6.6 28.1-14.9 40.2-25z" clip-rule="evenodd"></path></g><path fill="#552214" d="m1533.9 1468.5-1.2-5.2c47.8-11 41.2-57.4 40.9-59.4l5.2-.8c.1.6 7.6 53.3-44.9 65.4z"></path><path fill="#230e13" d="M1674.2 718.4c-9.3 0-17-7.6-17.1-16.9 0-4.6 1.7-8.9 4.9-12.1 3.2-3.3 7.5-5.1 12-5.1h.2c9.3 0 17 7.6 17.1 16.9.1 9.4-7.5 17.2-16.9 17.2h-.2zm0-31.2h-.1c-3.8 0-7.3 1.5-9.9 4.2-2.6 2.7-4.1 6.2-4 10 .1 7.7 6.4 13.9 14.1 13.9h.1c7.8-.1 14-6.5 13.9-14.2-.1-7.7-6.4-13.9-14.1-13.9zM1715.2 718c-9.3 0-17-7.6-17.1-16.9-.1-9.4 7.5-17.2 16.9-17.2h.2c9.3 0 17 7.6 17.1 16.9 0 4.6-1.7 8.9-4.9 12.1-3.2 3.3-7.5 5.1-12 5.1h-.2zm-.1-31.2c-7.8.1-14 6.5-13.9 14.2.1 7.7 6.4 13.9 14.1 13.9h.1c3.8 0 7.3-1.5 9.9-4.2 2.6-2.7 4.1-6.2 4-10-.1-7.7-6.4-13.9-14.1-13.9h-.1z"></path><path fill="#230e13" d="M1689.8 699.6h9.9v3h-9.9z" transform="matrix(.9999 -.01042 .01042 .9999 -7.21 17.69)"></path><path fill="#425b2e" fill-rule="evenodd" d="M1497.2 851.2s-18.6 34.4-28.5 92c-9.9 57.6-37.2 229.5-28 349.9 0 0-4.6 26.3 15.5 34.5 20 8.2 94.1 37.5 202.2 7.3 0 0 92.9-13.2 107.2-54.8 0 0 .7-22-5.7-44.3-6.3-22.4-11.9-42.1-11.9-42.1s-78.4 1.9-92.7-1.3c-14.2-3.3-71.6-5.2-138.8-118.3-.1-.1-45.6-89.5-19.3-222.9z" clip-rule="evenodd"></path><path fill="#fff" d="M1007.9 1854.2h1018.6v3H1007.9z" transform="rotate(-88.22 1517.194 1855.721) scale(.99998)"></path><path fill="#8bb762" d="m1749.2 1303.5-2.5-4.7c28.5-15.5 14.7-48.9 14.1-50.3l-15.4-54.2 5.1-1.4 15.3 53.9c0 .1 16 38.9-16.6 56.7z"></path><path fill="#425b2e" d="M1822.2 1196.7c-38.2 0-66.2-.7-66.9-.8l.1-5.3c1.7 0 170.1 4.5 247.6-8.6l.9 5.2c-46.5 7.9-125.3 9.5-181.7 9.5zM1977.6 1174.3l-4.7-2.4c25.4-50.8 5.7-80.1 5.5-80.4l4.3-3.1c.9 1.4 21.8 32.1-5.1 85.9z"></path><path fill="#741726" d="m2024.6 1159.4-3.8-1.1c7.7-26.6 4.4-56.2 4.4-56.5l4-.5c.1 1.3 3.3 30.8-4.6 58.1zM1855.1 1440.5l-1.9-3.5c25-13.8 38.9-30.6 39-30.7l3.1 2.5c-.6.7-14.5 17.5-40.2 31.7z"></path><path fill="#425b2e" d="m1738.4 914.7-5.3-.3c2-34.1-12.8-78.5-13-79l5-1.7c.7 1.8 15.4 45.9 13.3 81z"></path><path fill="#741726" d="M1502.9 2366.3c-14.6 0-24.4-2.4-25.2-2.6l1-3.9c.4.1 38.2 9.2 77.2-9.1l1.7 3.6c-20.3 9.6-39.9 12-54.7 12zM1834.1 2363.2c-12.6 0-19.2-2.7-19.7-2.9l1.5-3.7c.3.1 26.3 10.5 76.8-12l1.6 3.6c-26.8 12-46.9 15-60.2 15zM1860.3 2406.3c-25.6 0-42.8-15.7-43.1-15.9l2.7-2.9c1.5 1.4 36.6 33.2 81.8-.1l2.4 3.2c-16 11.7-30.9 15.7-43.8 15.7zM1520.6 2407.8c-25.7 0-41.5-17.3-41.7-17.6l3-2.6c1.3 1.5 33.4 36.3 81.6-.3l2.4 3.2c-17.1 13-32.4 17.3-45.3 17.3zM1659.5 742.8c-1.9 0-3.6-.3-5.3-.9-7.2-2.6-10.3-9.9-10.5-10.2l3.7-1.5c0 .1 2.6 6 8.2 8 3.6 1.3 7.7.7 12.3-1.6l1.8 3.5c-3.6 1.8-7 2.7-10.2 2.7z"></path><path fill="#2b3b77" fill-rule="evenodd" d="m1471.3 2393.6 119.8 39.7" clip-rule="evenodd"></path><path fill="#fff" d="M1528.5 2350.3h5.3v126.2h-5.3z" transform="rotate(-71.645 1531.254 2413.52)"></path><path fill="#425b2e" d="M1817.6 1410.6c-2.6 0-5.2-.1-8-.4l.5-5.3c53.6 5.2 66.6-47.1 66.7-47.7l5.2 1.2c-.1.6-12.9 52.2-64.4 52.2z"></path><path fill="#fff" d="M1752.5 1358.5h3v1004.2h-3z" transform="rotate(-11.507 1753.453 1860.403)"></path><path fill="#f0afab" fill-rule="evenodd" d="m1656.2 982.4 94.8-80.9c5.6-14.8 24-46.5 31.1-46.5 7.3 1.1-19.2 37.5-11.8 37.5 30-19.2 71.6-39.7 75.7-35.1 2.8 3.2-37.5 23-35.7 25.7 3 4.4 54.9-24.1 55.9-16.7 1 6.7-48.3 28.5-45 30.7-2.5 4.9 41.7-21.4 45.5-15.6 2.2 3.3-25.2 18.5-41.5 31.4-16.2 12.8 38.8-10.7 39.8-6.9 2.8 11-58.3 32.2-84.5 41.3l-73.1 70.7-51.2-35.6z" clip-rule="evenodd"></path><path fill="#edb5b3" fill-rule="evenodd" d="m1165.3 2340.1 4.4 51.5 18.3 30-83.2-1.2-17.9-26.8 2.1-48.4z" clip-rule="evenodd"></path><path fill="#6c3f29" fill-rule="evenodd" d="M1086.9 2393.6c28.2 21 56.2 21.1 82.9 0l79.5 45.2c14.9 8.5 13.5 27.6.5 27.6h-182.3c-2.1-53.8 19.4-48.6 19.4-72.8z" clip-rule="evenodd"></path><path fill="#edb5b3" fill-rule="evenodd" d="m1442.7 2309.1 18.4 79.1 18.3 30-83.2-1.2-18-26.8-4.8-60.7z" clip-rule="evenodd"></path><path fill="#6c3f29" fill-rule="evenodd" d="M1378.2 2390.2c28.2 21 56.2 21.1 82.9 0l136.2 45.2c16.3 5.4 13.5 27.6.5 27.6h-239c-2-53.7 19.4-48.6 19.4-72.8z" clip-rule="evenodd"></path><path fill="#698b48" fill-rule="evenodd" d="m1085.1 1234.1-57.9 1118.1c34.3 21.1 162.6 24.5 210.5-3.1l14.1-884.7 56.5 890.3c54.4 15.6 156.3 10.9 208.1-16l-140.8-1118.4-290.5 13.8z" clip-rule="evenodd"></path><path fill="#e89b23" fill-rule="evenodd" d="m1481.2 1029.8 222.6-128.6c13.7 8 63.2 83.2 61.7 94.7-50.5 47.7-252.9 188.8-360.2 193.3-176.5 7.5-218.5-392.1-110.5-368.6 85.8 18.7 116.6 249.5 186.4 209.2z" clip-rule="evenodd"></path><path fill="#e89b23" fill-rule="evenodd" d="M1064.4 1246.6c22.7 56.3 319.2 78.4 320.9 4.9.9-37.2-45.6-99.2-40.5-140.4 12.1-99 21.4-189.8-8.9-263-3.8-9.3-18.7-20.8-33.5-28.8-8.6-4.6-13.6-5.1-20.2-5.2 0 0-40.1.3-57.9 2.8-6.5.9-35.8 5.1-49.5 10.1-169.5 62.2-115.7 406.5-110.4 419.6z" clip-rule="evenodd"></path><path fill="#f0afab" fill-rule="evenodd" d="M1291.1 814.7c.3-2.9-17.9-7.8 12.9-51.1 4.8-6.7 17-2.2 18.5-7.6 3.8-14.4-10.5-36.1-4.3-52.9 4.3-11.8-16.4-19.5-31.9-23.2-25.5-6.2-69.7 9.7-54 67 3.8 13.8 15.1 29 14.6 68 0 12.4 8.2 27.1 18.8 27.2 13.6.1 30.1-17.6 25.4-27.4z" clip-rule="evenodd"></path><path fill="#425b2e" d="m1256.6 1437.2-1.7-5c41.4-14.1 38.7-71.4 38.7-72l5.3-.3c0 .7 2.8 62-42.3 77.3z"></path><path fill="#425b2e" d="M1208 1415.3h99.5v5.3H1208z" transform="rotate(-83.275 1257.733 1417.99)"></path><path fill="#f0afab" fill-rule="evenodd" d="m1326 1323.8 104.1 68.5c15.8 1.3 51.4 10.1 53.3 16.9 1 7.4-41.4-8-39.3-.8 26.8 23.5 58.2 57.7 54.8 63-2.3 3.6-32.5-29.6-34.6-27.1-3.4 4.1 38.5 46 31.7 49.1-6.2 2.8-40.9-38.5-42-34.7-5.4-1 32.2 34.1 27.7 39.3-2.6 3-24.8-19-41.8-31.1-16.8-12 21.1 34.3 17.7 36.3-9.8 5.7-47.2-47-63.2-69.7l-88.3-50.5 19.9-59.2z" clip-rule="evenodd"></path><path fill="#e89b23" fill-rule="evenodd" d="m1206.7 1096.2 184.9 229.1c18.1 24.5-39.4 108.5-62.8 103.3-61.6-25.1-170.6-153.4-247.3-228.6-128.7-126.3 68.7-434.7 133.8-361.5 58.5 65.7-59.2 195-8.6 257.7z" clip-rule="evenodd"></path><path fill="#ca7d29" d="m1320.8 1399.6-1.8-2.4c.4-.3 39.8-30.1 50.8-62.9l2.8 1c-11.3 33.6-50.1 63.1-51.8 64.3z"></path><path fill="#ca7d29" fill-rule="evenodd" d="m1246.8 813.7 18.8 28.4c-16.4.2-26 9.8-31.5 25.2l-3.9-51.1 16.6-2.5zM1289.3 812.1l-23.7 30c14.1 2.6 22.7 13.5 28.8 28.3l8.1-51.1-13.2-7.2z" clip-rule="evenodd"></path><path fill="#230e13" fill-rule="evenodd" d="M1319.9 716.2c-10.4 6-39.7-31.7-54.7 11.7-1.1 3.3-2.8 14.8-17.3 6.6-14.5-8.2-15.1 16.1-1.4 14 13.6-2-3.4 44.4 5.8 78.4 40.9 150.5-117.2 135.9-139.5 63.8-25.9-83.5 99.5-148.5 99-157.3-.9-15.4 1.7-32.6 29-50.1 63.2-106 144.2 13.8 79.1 32.9z" clip-rule="evenodd"></path><path fill="#741726" d="M1281.7 773.9c-.8 0-1.6-.1-2.4-.3-6.1-1.5-9-8.3-9.2-8.6l3.7-1.6c0 .1 2.3 5.3 6.5 6.3 2.3.6 4.9-.3 7.8-2.6l2.5 3.1c-3.1 2.5-6.1 3.7-8.9 3.7zM1358.2 1413.9l-1.9-3.5c15.8-8.6 30-45.9 30.2-46.3l3.7 1.4c-.6 1.6-14.8 39.1-32 48.4z"></path><path fill="#ca7d29" fill-rule="evenodd" d="M1739.8 944s-157.2 142.7-232.3 157.6c-75.1 14.9-159.3 5.1-155.4-55.8 0 0-8.7 62.5-7.7 73 1 10.5 8.2 51.8 19.1 64.2 10.9 12.3 68 4.7 90-2.5 21.9-7.1 165.4-64.3 259.1-141.9l52.9-42.7s-10.2-32.2-25.7-51.9z" clip-rule="evenodd"></path><path fill="#ca7d29" d="M1740.1 1001.7c-16.1-35.2-51.6-77.3-52-77.7l2.3-1.9c.4.4 36.1 42.8 52.4 78.4l-2.7 1.2z"></path><path fill="#741726" d="M1753.4 972c-1.8-12.6-30.2-46.1-30.5-46.4l3-2.6c1.2 1.4 29.4 34.8 31.4 48.4l-3.9.6z"></path><path fill="#ca7d29" fill-rule="evenodd" d="m1224.6 936.5-29.8 103s-5.8 43.4 22.1 69.5c28 26.1 66.9 82.9 83.6 103.7 16.8 20.8 56.7 70.3 56.7 70.3s-61.7-105.4-51.2-135.5c10.4-30.1 31.7-79.6 8.7-67.2-23 12.4-89.3 62.8-74.3-19.4 15-82.2 23.2-154.2 17.6-174.5.1-.1-4.6 36.6-33.4 50.1zM1053.8 1160.7s20.7 37.5 44.2 55.9c23.6 18.4 72 74.8 72 74.8s-53.6-7.3-86.6-26.1c0 0-21.5-5.9-22.8-38l-6.8-66.6z" clip-rule="evenodd"></path><path fill="#ca7d29" d="m1348.1 1090.3-3-.5c25.4-145.5-3.3-221.1-3.6-221.9l2.8-1.1c.3.7 29.3 77.1 3.8 223.5z"></path><path fill="#fff" d="M1264.5 1168.2c-.4-33.1 5.4-64.3 11-94.5 3.7-19.6 7.4-40 9.5-60.8 5.7-57.1-1.3-114.3-19.9-161.2l2.8-1.1c18.7 47.3 25.8 105 20.1 162.6-2.1 20.9-5.9 41.3-9.6 61-5.6 30-11.4 61.1-10.9 93.9l-3 .1z"></path><path fill="#425b2e" fill-rule="evenodd" d="M1222.6 1344.8s-78.6-2-100.4-9.9c-30.5-11.1-40.6-30.2-40.6-30.2l2-39.3s57.6 27.3 86.6 26.1l52.4 53.3zM1357.4 1283l31 38.4-7.1-56.6s-6.6 11.2-23.9 18.2z" clip-rule="evenodd"></path><path fill="#425b2e" d="M1277.4 1492.7h5.3v862.9h-5.3z" transform="matrix(.9979 -.06545 .06545 .9979 -123.187 87.904)"></path><path fill="#741726" d="M1130.3 2372.6c-26.4 0-41.9-5.6-42.8-6l1.4-3.7c.3.1 30.6 11.1 78.4 2.2l.7 3.9c-14.3 2.6-26.9 3.6-37.7 3.6zM1387.7 2365.6c-7.1 0-11.6-.2-11.7-.2l.1-4c.5 0 46 1.6 77.4-5.6l.9 3.9c-22 5.1-50.8 5.9-66.7 5.9z"></path><path fill="#fff" d="M584.1 1827.3h1084.4v3H584.1z" transform="rotate(-88.413 1126.298 1828.87)"></path><path fill="#ca7d29" d="m1435.5 1074.7-2.9-.6c7.7-35.7 38.2-41.8 38.5-41.8l.5 3c-1.1.1-28.9 5.7-36.1 39.4zM1205.5 1097c-.2-.4-25.3-39.8-60.1-34.7l-.4-3c36.8-5.4 62.9 35.7 63.1 36.1l-2.6 1.6z"></path><path fill="#fff" d="M1337.4 1410.3h3V2358h-3z" transform="rotate(-6.806 1339.452 1884.824)"></path><g><path fill="#6c3f29" d="M716 1998.2c-2.8-14.5-8-52.4 3.2-92 11.5-41 36.6-70.4 74.4-87.3l2.2 4.8c-36.3 16.2-60.4 44.5-71.5 83.9-10.8 38.5-5.8 75.5-3.1 89.6l-5.2 1z"></path><path fill="#6c3f29" d="m756 2052.5-5.2-1c2.7-14.1 7.8-51.1-3.1-89.6-11.1-39.4-35.2-67.6-71.5-83.9l2.2-4.8c37.8 16.9 62.9 46.3 74.4 87.3 11.2 39.6 6 77.5 3.2 92zM799.8 1996.7l-5.3-.2c1.6-51.2-16.8-80.1-36.3-110.8-23.8-37.4-48.3-76-36.8-157.4l5.3.7c-11.3 79.4 12.8 117.2 36 153.8 19 30 38.7 61 37.1 113.9z"></path><path fill="#6c3f29" fill-rule="evenodd" d="M738.1 1583.7c23.8 2.1 39.9 39.4 36 83.1-3.9 43.8-26.4 77.5-50.2 75.4-23.8-2.1-39.9-39.4-36-83.1 3.9-43.8 26.4-77.6 50.2-75.4z" clip-rule="evenodd"></path><path fill="#6c3f29" d="M726 1744.9c-.8 0-1.6 0-2.4-.1-25.2-2.3-42.4-40.9-38.4-86 1.9-21.6 8.4-41.5 18.1-56.1 10-15.1 22.5-22.8 35-21.6 12.5 1.1 23.4 10.9 30.6 27.5 7 16.1 9.7 36.9 7.8 58.5s-8.4 41.5-18.1 56.1c-9.4 14.1-20.9 21.7-32.6 21.7zm9.9-158.7c-9.9 0-19.8 6.8-28.2 19.4-9.2 13.9-15.4 32.9-17.2 53.7-3.8 42.2 11.2 78.2 33.5 80.2 10.5.9 21.2-5.9 30.1-19.3 9.2-13.9 15.4-32.9 17.2-53.7 1.9-20.7-.8-40.6-7.4-55.9-6.4-14.8-15.7-23.4-26.2-24.4-.5.1-1.1 0-1.8 0zM633.1 2089.2c-9.2-11.5-31.7-42.5-40.5-82.7-9.1-41.6-.8-79.3 24.6-112l4.2 3.3c-24.4 31.4-32.4 67.6-23.6 107.7 8.5 39.1 30.4 69.3 39.4 80.5l-4.1 3.2z"></path><path fill="#fbf4ec" fill-rule="evenodd" d="M944.7 1772.7c7.6 22.7-20 52.3-61.7 66.3s-81.6 6.9-89.2-15.7c-7.6-22.7 20-52.3 61.7-66.3s81.6-7 89.2 15.7z" clip-rule="evenodd"></path><path fill="#6c3f29" d="M841.5 1848.8c-5.7 0-11.2-.5-16.3-1.4-17.8-3.1-29.9-11.5-33.9-23.4-8-24 20.4-55.3 63.4-69.7 43-14.4 84.5-6.6 92.5 17.4s-20.4 55.3-63.4 69.7c-14.4 4.9-28.9 7.4-42.3 7.4zm55.8-96.5c-12.5 0-26.6 2.3-41 7.1-40.2 13.5-67.1 41.7-60 62.9 3.3 10 13.9 17 29.8 19.8 16.4 2.9 36.3.8 56.1-5.8 40.2-13.5 67.1-41.7 60-62.9-4.6-13.6-22.2-21.1-44.9-21.1zM619 1858.7c-2.8 0-5.7-.2-8.7-.5-17.4-2.1-36.7-10.2-54.4-22.8-36.9-26.3-55-64.5-40.3-85.1 14.7-20.6 56.7-16 93.6 10.3 17.7 12.6 31.6 28.2 39.3 44 7.9 16.3 8.3 30.9 1 41.1-6 8.5-16.7 13-30.5 13zm-99-105.4c-13 18.2 4.5 53.1 39.1 77.7 17 12.1 35.4 19.8 51.9 21.9 16 2 28.1-1.7 34.3-10.3 6.1-8.6 5.6-21.3-1.5-35.7-7.3-15-20.7-29.9-37.6-42-34.5-24.6-73.2-29.8-86.2-11.6z"></path><path fill="#6c3f29" fill-rule="evenodd" d="M706.4 1817.1c-17.5-16.3-55.9-3.5-85.9 28.6-30 32.1-40.1 71.4-22.7 87.7 17.5 16.3 55.9 3.5 85.9-28.6 30.1-32.1 40.2-71.4 22.7-87.7z" clip-rule="evenodd"></path><path fill="#6c3f29" d="M618 1943.2c-8.9 0-16.4-2.6-21.9-7.8-9.2-8.6-11.8-23-7.2-40.5 4.4-17 15-35.1 29.8-50.9 14.8-15.9 32.1-27.6 48.8-33.2 17.2-5.7 31.7-4.2 40.9 4.4 18.5 17.3 8.4 58.3-22.5 91.4-14.8 15.9-32.1 27.6-48.8 33.2-6.9 2.2-13.3 3.4-19.1 3.4zm68.3-130.5c-5.2 0-11 1-17.3 3.1-15.8 5.3-32.3 16.6-46.6 31.8-14.2 15.2-24.3 32.5-28.5 48.6-4 15.6-2 28.1 5.7 35.3 7.7 7.2 20.4 8.4 35.6 3.3 15.8-5.3 32.3-16.6 46.5-31.8 28.9-31 39.2-68.7 22.8-83.9-4.4-4.3-10.7-6.4-18.2-6.4z"></path><path fill="#fbf4ec" fill-rule="evenodd" d="M853.8 1872.7c-11.1-9.1-33.6 0-50.4 20.3-16.8 20.4-21.4 44.2-10.4 53.4 11.1 9.1 33.6 0 50.4-20.3 16.8-20.4 21.4-44.3 10.4-53.4z" clip-rule="evenodd"></path><path fill="#6c3f29" d="M803.8 1952.6c-4.9 0-9.2-1.4-12.5-4.2-12.4-10.2-8-35.3 10-57.1 18-21.8 41.8-30.9 54.2-20.7 6.1 5.1 8.3 13.9 6.2 25-2 10.5-7.8 21.9-16.2 32.1-8.4 10.2-18.5 18-28.4 22-4.8 2-9.3 2.9-13.3 2.9zm39.2-80.8c-10.9 0-25.9 8.7-37.6 22.9-15.6 18.9-20.5 41.6-10.7 49.6 4.6 3.8 11.8 3.9 20.4.5 9.1-3.7 18.5-10.9 26.3-20.4 7.8-9.5 13.2-20.1 15.1-29.7 1.8-9.1.2-16.2-4.4-19.9-2.4-2-5.6-3-9.1-3z"></path><path fill="#fbf4ec" fill-rule="evenodd" d="M568.9 1971.7h369.9c10.9 0 19.8 8.9 19.8 19.8s-8.9 19.8-19.8 19.8H568.9c-10.9 0-19.8-8.9-19.8-19.8 0-10.8 8.9-19.8 19.8-19.8z" clip-rule="evenodd"></path><path fill="#6c3f29" d="M938.8 2014H568.9c-12.4 0-22.5-10.1-22.5-22.5s10.1-22.5 22.5-22.5h369.9c12.4 0 22.5 10.1 22.5 22.5 0 12.5-10.1 22.5-22.5 22.5zm-369.9-39.6c-9.5 0-17.2 7.7-17.2 17.2s7.7 17.2 17.2 17.2h369.9c9.5 0 17.2-7.7 17.2-17.2s-7.7-17.2-17.2-17.2H568.9z"></path><path fill="#698b48" fill-rule="evenodd" d="M583.1 2011.4h341.5l17.2 104.9c9.2 56.3-38.4 114.1-102.1 114.1H668c-63.7 0-111.4-57.7-102.1-114.1l17.2-104.9z" clip-rule="evenodd"></path><path fill="#fbf4ec" fill-rule="evenodd" d="m930.7 2048.6 5.2 31.8H571.7l5.2-31.8h353.8zm7.8 47.2 2.5 15.4H566.7l2.5-15.4h369.3z" clip-rule="evenodd"></path><path fill="#e89b23" fill-rule="evenodd" d="M675.2 2281.3h-56l-14.5 173.2c-.4 4.7 2.6 8.5 7.3 8.5h16.9c4.7 0 8.7-3.9 9.6-8.5l36.7-173.2zM835.5 2281.3h56l14.5 173.2c.4 4.7-2.6 8.5-7.3 8.5h-16.9c-4.7 0-8.7-3.9-9.6-8.5l-36.7-173.2z" clip-rule="evenodd"></path><path fill="#fbf4ec" fill-rule="evenodd" d="M598.7 2281.3H909c4.9 0 9-4 9-8.9s-4-9-9-9H598.7c-4.9 0-9 4-9 9 .1 4.9 4.1 8.9 9 8.9z" clip-rule="evenodd"></path><path fill="#6c3f29" d="M909 2284H598.7c-6.4 0-11.6-5.2-11.6-11.6 0-6.4 5.2-11.6 11.6-11.6H909c6.4 0 11.6 5.2 11.6 11.6 0 6.4-5.2 11.6-11.6 11.6zm-310.3-17.9c-3.5 0-6.3 2.8-6.3 6.3s2.8 6.3 6.3 6.3H909c3.5 0 6.3-2.8 6.3-6.3s-2.8-6.3-6.3-6.3H598.7z"></path><path fill="#fbf4ec" fill-rule="evenodd" d="M562.5 2230.3h382.6c9.1 0 16.6 7.4 16.6 16.6 0 9.1-7.5 16.6-16.6 16.6H562.5c-9.1 0-16.6-7.4-16.6-16.6.1-9.2 7.5-16.6 16.6-16.6z" clip-rule="evenodd"></path><path fill="#6c3f29" d="M945.1 2266.1H562.5c-10.6 0-19.2-8.6-19.2-19.2s8.6-19.2 19.2-19.2h382.6c10.6 0 19.2 8.6 19.2 19.2.1 10.5-8.6 19.2-19.2 19.2zm-382.6-33.2c-7.7 0-13.9 6.2-13.9 13.9s6.2 13.9 13.9 13.9h382.6c7.7 0 13.9-6.2 13.9-13.9s-6.2-13.9-13.9-13.9H562.5z"></path><path fill="#6c3f29" d="M806.6 1801.8h113.9v5.3H806.6z" transform="rotate(-17.264 863.398 1804.232)"></path><path fill="#fff" d="m722.6 1707.2-3-.3 9.9-93.8 3 .3zM614.6 1919.2l-2.2-2.1c22.8-23.7 76-78.9 78.7-79.8l1 2.8-.5-1.4.7 1.3c-3.1 2-48.2 48.5-77.7 79.2z"></path></g><path fill="#6c3f29" d="M4091.8 2465.6H693v-5.3h3398.8v5.3zm-3454.1 0h-161v-5.3h160.9v5.3z"></path><path fill="#f0afab" fill-rule="evenodd" d="m2333.3 1101.6-126.3 12c-13.4 1.3-87.3-.7-91 10.2-2.2 6.4 3.3 8.4-.4 10.8-27.6 17.7-57.9 9.6-62.9 17.7-7 11.3 22 45.3 109.5 22.1 34.2-9.1 28.3-9.5 57.3-6.8l103.4-3.4 10.4-62.6z" clip-rule="evenodd"></path><path fill="#e89b23" fill-rule="evenodd" d="m2561.4 1046.1-315.7 45.7c-30.7 4.5-20.3 96 .2 109.1 64.5 12.6 221.3 8.7 330.4 10 183.4 2.1 252.2-345 126.4-395-82.9-32.9-60.2 218.5-141.3 230.2z" clip-rule="evenodd"></path><path fill="#ca7d29" fill-rule="evenodd" d="M2637.2 1093.9s5.4 47.6-47.7 65.6c-53 18-358.3 13.6-358.3 13.6s1.4 25.7 14.7 27.9c13.3 2.2 82 9 152.7 9.3 70.7.3 183.4.7 183.4.7s48.1 5.3 100.3-44.8c0 0 29.4-27.4 35.3-44l-80.4-28.3z" clip-rule="evenodd"></path><path fill="#edb5b3" fill-rule="evenodd" d="m2507.4 2306.4-18.7 80.5-18.6 30.5 84.7-1.2 18.2-27.3 4.9-61.7z" clip-rule="evenodd"></path><path fill="#6c3f29" fill-rule="evenodd" d="M2573 2388.9c-28.6 21.4-57.1 21.5-84.3 0l-138.6 46c-16.6 5.5-13.8 28.1-.5 28.1h243.1c2.2-54.7-19.7-49.4-19.7-74.1z" clip-rule="evenodd"></path><path fill="#edb5b3" fill-rule="evenodd" d="m2845.7 2306.4-18.7 80.5-18.6 30.5 84.7-1.2 18.2-27.3 4.9-61.7z" clip-rule="evenodd"></path><path fill="#6c3f29" fill-rule="evenodd" d="M2911.3 2388.9c-28.6 21.4-57.1 21.5-84.3 0l-138.6 46c-16.6 5.5-13.8 28.1-.5 28.1H2931c2.1-54.7-19.7-49.4-19.7-74.1z" clip-rule="evenodd"></path><path fill="#2b3b77" fill-rule="evenodd" d="m2931 1212.9 12.7 1136.3c-34.9 21.4-78.8 22-127.4-6.1l-54.8-895.9-152.6 903.7c-55.4 15.8-78.1 13.1-130.8-14.2l164-1137.5 288.9 13.7z" clip-rule="evenodd"></path><path fill="#231915" d="M2756.9 1382c-45.1-15.4-42.2-76.8-42.2-77.4l3 .2c0 .6-2.8 59.8 40.1 74.4l-.9 2.8z"></path><path fill="#1c2c59" d="M2755.9 1342.2h3v101.2h-3z" transform="rotate(-6.783 2757.674 1393.015)"></path><path fill="#e89b23" fill-rule="evenodd" d="M2949.8 1313.1c-23.1 57.3-322.7 33.2-324.4-41.6-.9-37.8 46.6-142 41.4-183.8-12.4-100.7-21.8-193.1 9-267.6 3.9-9.5 19-21.1 34-29.3 8.7-4.6 13.8-5.2 20.5-5.2 0 0 40.8.3 58.9 2.9 6.6.9 35.8 7.1 50.4 10.3 64.9 14.3 89.8 137.3 105.2 307.7 7.2 79.8 7 201.6 5 206.6z" clip-rule="evenodd"></path><path fill="#f0afab" fill-rule="evenodd" d="M2721.4 786.2c-.3-3 18.2-7.9-13.1-52-4.8-6.8-17.3-2.3-18.8-7.8-3.9-14.7 10.7-36.7 4.4-53.8-4.4-12 16.6-19.8 32.4-23.6 25.9-6.3 70.9 9.9 55 68.2-3.8 14-15.4 29.5-14.8 69.1 0 12.6-8.3 27.6-19.1 27.7-14 .2-30.8-17.8-26-27.8z" clip-rule="evenodd"></path><path fill="#fff" d="m2729 1222.6-2.7-1.3c29.2-63.7 19.6-118.7 9.3-176.8-10.8-61.3-23.1-130.8 9.3-221.7l2.8 1c-32.1 90.1-20.5 156.2-9.2 220.1 10.4 58.7 20.2 114.1-9.5 178.7z"></path><path fill="#ca7d29" fill-rule="evenodd" d="m2766.5 785.2-19.1 28.9c16.7.2 26.4 10 32 25.7l4-52-16.9-2.6zM2723.3 783.5l24.1 30.6c-14.4 2.7-23.1 13.8-29.3 28.8l-8.3-52 13.5-7.4z" clip-rule="evenodd"></path><path fill="#230e13" fill-rule="evenodd" d="M2693.1 683.2c11.3 5.4 38.3-36.4 57.7 7.3 1.5 3.3 4.2 15.1 18.5 5.3s17 15.3 2.7 14.4c-14.3-.9 0 28.4 5.5 24.5 5.5-3.9 46.8-43.5 2.9-91.4-49.1-67.5-137.7 31.8-87.3 39.9z" clip-rule="evenodd"></path><path fill="#f0afab" fill-rule="evenodd" d="m2664.2 1343.7-76.2 101.4c-14.7 6.7-45.7 27.3-45.2 34.5 1.6 7.4 36.9-21.9 37.4-14.3-17.6 31.7-35.8 75.3-30.8 79.1 3.5 2.7 21-39.5 23.8-37.8 4.7 2.7-21 57.3-13.5 57.9 6.9.5 25.9-50.9 28.3-47.7 4.8-2.9-19.1 43.7-13 47.1 3.5 2 17.2-26.7 29.3-44.1 12-17.3-8.4 40.1-4.5 40.8 11.3 2.1 29-61.2 36.6-88.4l67.1-78.7-39.3-49.8z" clip-rule="evenodd"></path><path fill="#e89b23" fill-rule="evenodd" d="m2785.2 1128.5-179.5 254.1c-16.8 26 58.8 78.5 82.2 71.8 52.1-40.2 152.4-160.7 225.3-241.9 122.5-136.5 2.4-478.3-106.2-402.7-73.3 50.9 25.5 251.8-21.8 318.7z" clip-rule="evenodd"></path><path fill="#741726" d="M2210.3 1160.9c-53.4 0-56.7-43-56.8-43.4l4-.3c.1 1.7 3.1 41 55 39.6l.1 4c-.8.1-1.6.1-2.3.1zM2142.5 1179.2c-5.7 0-17.2-4.1-32.6-9.7-7.1-2.6-13.9-5.1-17.7-6-10.4-2.6-45.5-1.8-45.8-1.8l-.1-4c1.5 0 35.9-.8 46.9 1.9 4 1 10.5 3.4 18.1 6.2 11.7 4.3 27.7 10.2 32 9.4l.7 3.9c-.5 0-1 .1-1.5.1zM2656.8 1449.1c-29.9-14.7-45-34.7-45.7-35.6l3.2-2.4c.2.2 15.2 20.1 44.2 34.4l-1.7 3.6zM2227.9 1167.7c-6.2-26.8-.9-55.4-.6-56.6l3.9.7c-.1.3-5.4 29 .6 54.9l-3.9 1z"></path><path fill="#ca7d29" d="M2267.1 1188.8c-27.3-56.6-.1-90.8.2-91.1l2.3 1.9c-.3.3-26.2 33.2.2 87.9l-2.7 1.3zM2659.7 1000.2c-29-106.4 14.3-180.2 14.8-180.9l2.6 1.5c-.4.7-43.1 73.5-14.4 178.6l-3 .8zM2789.3 992.6c-7.2-25.4-17.5-111.8-6.7-153.2 10.8-41.4 56.6-42.2 57-42.2v3c-.4 0-44 .7-54.1 39.9-10.6 40.9-.5 126.5 6.7 151.7l-2.9.8z"></path><path fill="#ca7d29" fill-rule="evenodd" d="M2948 1153.5s-5.4 25.1-59.1 86.2-92.6 105.1-92.6 105.1 131.5 8.8 153.4-31.7l-1.7-159.6z" clip-rule="evenodd"></path><path fill="#ca7d29" d="M2613 1221.4h211.1v3H2613z" transform="rotate(-54.746 2718.495 1222.876)"></path><path fill="#741726" d="M2728.3 744.3c-.8 0-1.6-.1-2.3-.2-7.1-1.3-10.4-7.9-10.5-8.2l3.6-1.8c0 .1 2.6 5.1 7.7 6 4.2.7 9.1-1.5 14.4-6.6l2.7 2.9c-5.5 5.3-10.7 7.9-15.6 7.9z"></path><path fill="#fff" d="M2879.9 1345.2h3v841.2h-3z" transform="matrix(.999 -.0456 .0456 .999 -77.512 133.203)"></path><path fill="#741726" d="M2551.7 2363.5c-31.4 0-53.6-14.7-54.7-15.5l2.2-3.3c.3.2 33.9 22.4 75.7 11.9l1 3.9c-8.5 2.2-16.6 3-24.2 3zM2889.2 2368.1c-26.6 0-53.9-11.7-55.4-12.3l1.6-3.6c.5.2 47.3 20.2 76.8 8l1.5 3.7c-7.5 3-16 4.2-24.5 4.2zM2530.6 2406.7c-25.6 0-43-16-43.2-16.3l2.7-2.9c1.5 1.4 36.9 34 81.7-.1l2.4 3.2c-15.8 12-30.8 16.1-43.6 16.1zM2863.8 2407.1c-17.2 0-37.2-15.8-38.1-16.6l2.5-3.1c.2.2 22.9 18.1 39 15.4l.7 3.9c-1.3.2-2.7.4-4.1.4zM2637.2 1065.2c-.8-24.6 12.8-53.5 13.4-54.7l3.6 1.7c-.1.3-13.7 29.2-13 52.9l-4 .1z"></path><path fill="#fff" d="M2154.4 1904.6h916v3h-916z" transform="rotate(-80.497 2612.248 1906.05)"></path><path fill="#edb5b3" fill-rule="evenodd" d="m3292.3 2336.8 4.5 51.4 18.3 30-83.3-1.2-17.9-26.8 2.1-48.4z" clip-rule="evenodd"></path><path fill="#2b3b77" fill-rule="evenodd" d="M3213.9 2390.2c28.2 21 56.2 21.1 82.9 0l79.5 45.2c14.9 8.5 13.5 27.6.5 27.6h-182.3c-2.1-53.7 19.4-48.6 19.4-72.8z" clip-rule="evenodd"></path><path fill="#edb5b3" fill-rule="evenodd" d="m2928.4 2305.7-18.4 79.2-18.3 29.9 83.3-1.2 17.9-26.8 4.8-60.7z" clip-rule="evenodd"></path><path fill="#2b3b77" fill-rule="evenodd" d="M2994.4 2390.2c-28.2 21-56.2 21.1-82.9 0l-136.2 45.2c-16.3 5.4-13.5 27.6-.5 27.6h239c2-53.7-19.4-48.6-19.4-72.8z" clip-rule="evenodd"></path><path fill="#e89b23" fill-rule="evenodd" d="m3266.6 1230.8 57.9 1118.1c-34.3 21.1-79.1 24.5-126.9-3.1l-97.7-884.7-74.4 890.3c-54.4 15.6-84.7 10.9-136.5-16l87.1-1118.4 290.5 13.8z" clip-rule="evenodd"></path><path fill="#f0afab" fill-rule="evenodd" d="M2654.4 1011.6c-62.5-6.9-39.7-8.3-102.2-11.1-44.7-2-79.6-.2-79.2 7.8.2 4.3 63.2 7.7 72.4 16.8 8.9 8.8 5.7 23.1 15.8 37.7 6.5 9.3 28.9 5.7 55.7-1.5l100.2 17.5-62.7-67.2z" clip-rule="evenodd"></path><path fill="#741726" d="M2613.7 1054.9c-4.2-28.8-19-31.7-19.2-31.7l.7-3.9c.7.1 17.8 3.4 22.4 35l-3.9.6z"></path><path fill="#739157" fill-rule="evenodd" d="m2882 985.2-224.6 17.2c-10.7 11.8-25.1 81-20.2 91.5 62.5 30.3 245.6 76.1 349.3 48.2 170.6-46 176.1-403 87.7-336.5-84.9 63.9-148.2 176.2-192.2 179.6z" clip-rule="evenodd"></path><path fill="#739157" fill-rule="evenodd" d="M3393.9 1181.7c-16.2 24.1-84-8.6-129-39.2-1.9 15.3 32.7 83 16.6 110.6-30.6 52.4-327.1 31.8-318.3-41.2 4.4-36.9 25.4-51.4 26.3-92.9 2.8-128.3 10.8-303.9 114.1-324.8 10.1-2.1 23.4-.3 35.2 1.6 14.3 2.3 24.3 2.9 35.4 6.4 6 2.5 22.1 7 31.3 11.4 91.8 43.8 246.7 265.6 188.4 368.1z" clip-rule="evenodd"></path><path fill="#f0afab" fill-rule="evenodd" d="M3119 793.2s18.8-5.1-5.4-52.4c-3.7-7.3-16.5-4.7-17.2-10.2-1.7-14.8 15.6-34.2 11.9-51.7-2.6-12.3 19-16.9 34.9-18.4 26.1-2.5 67.6 19.6 43.9 74.1-5.7 13.1-28.6 21.6-33.6 60.3-4.4 34-11.6 29.8-17.3 27.9-10.6-3.5-18.9-29.6-17.2-29.6z" clip-rule="evenodd"></path><path fill="#230e13" fill-rule="evenodd" d="M3107.7 679.8c8.9 8.5 47.1-22 51.5 24.8.3 3.5-.8 15.4 15.6 10.7 16.4-4.7 11.1 19.6-2 14.3-13.1-5.3-8.9 26.5-2.5 24.6 6.3-1.9 74.2-24.4 18.6-82.3-37.3-120.7-141.4-26.8-81.2 7.9z" clip-rule="evenodd"></path><path fill="#425b2e" fill-rule="evenodd" d="m3153.3 796-17.2 26.7c16.1 2.8 24 13.9 26.9 30l11.4-50.5-21.1-6.2zM3121.6 791.6l14.4 31.1c-14.4.3-24.6 9.6-33 23.2l.4-51.8 18.2-2.5z" clip-rule="evenodd"></path><path fill="#ca7d29" d="M3095.1 1398.1c-45.1-15.4-42.3-76.7-42.2-77.3l5.3.3c0 .6-2.7 57.9 38.7 72l-1.8 5z"></path><path fill="#ca7d29" d="M3091.3 1329.1h5.3v99.5h-5.3z" transform="rotate(-6.783 3094.463 1379.05)"></path><path fill="#ca7d29" fill-rule="evenodd" d="m2974.4 1238.1-2.6 33.1s80.8 65.3 299.7 53.9l-4-59.8c-.1 0-130.2 53.7-293.1-27.2z" clip-rule="evenodd"></path><path fill="#fff" d="M3240.3 1283.3h5.3v1082.6h-5.3z" transform="rotate(-3.775 3242.817 1824.642) scale(.99997)"></path><path fill="#ca7d29" d="M2616 1903.5h893.4v5.3H2616z" transform="matrix(.08404 -.9965 .9965 .08404 905.839 4797.81)"></path><path fill="#425b2e" fill-rule="evenodd" d="M2996.2 992s2.4-68 35.8-139.2c-39.3 38.3-60.5 232.7-123.2 241.1-62.8 8.5-269.5-28.8-269.5-28.8l-.8-.1-2 16.1s-1.3 11.8.8 12.8c2 1 65.6 26.1 106.7 35 41.1 8.8 166.1 36.1 242.6 13.2 0 0 5.8-55.6 4.9-85-1-29.4 4.7-65.1 4.7-65.1z" clip-rule="evenodd"></path><path fill="#425b2e" d="M3222.1 977.3c-.1-.3-8.4-29.7-10.4-56.9-.7-9.1-.6-17.1.2-23.8l5.3.7c-.8 6.3-.9 13.9-.2 22.7 2 26.7 10.1 55.5 10.2 55.8l-5.1 1.5z"></path><path fill="#f0afab" fill-rule="evenodd" d="m3104.1 963.2-32.7-17.4c-9.3-12.8-35.3-38.7-42.1-36.8-6.8 3 28.4 31.2 21.1 33.2-34-10.7-79.5-19.7-82.3-14.1-1.9 3.9 42.2 12.4 41.1 15.5-1.7 5-59.3-9-58.4-1.6.8 6.7 54.1 14.9 51.5 17.9 3.7 4.1-45.8-9.8-48-3.2-1.2 3.8 29.1 11.3 48.3 19.5 19 8.1-40.3-.2-40.2 3.7.2 11.3 64.7 15.9 92.4 17.8l36.4 20.1c.8-16.1 4.5-34 12.9-54.6z" clip-rule="evenodd"></path><path fill="#425b2e" d="m3212.4 1121.3-123.6-85.2-.1-1.2c-2.8-22.1 7.2-78.3 24.4-86.3l.6-.3.7.1c117.2 9 190.7 64.5 247.3 117.6l-3.6 3.9c-55.7-52.3-128.2-107-243.3-116.1-13.2 7.4-23.2 56.4-20.9 79.3l121.6 83.9-3.1 4.3z"></path><path fill="#425b2e" fill-rule="evenodd" d="M3219.3 1122.7s27.3 40.7 23.7 82.2c-3.6 41.5-139.1 84.5-230.9 49.8 0 0 85.5 39.7 171.4 27.2 0 0 67.4-1.6 88-19 20.7-17.4 15.5-32.7 6.8-70.3-8.9-33.6-10.9-26.4-13.4-50.1l-45.6-19.8z" clip-rule="evenodd"></path><path fill="#fff" d="M2668.6 1105.7c-12.6-58.8 20.3-100.4 24.4-103.2l1.7 2.5c-3.8 2.6-35.2 43.9-23.2 100.1l-2.9.6zM3118 1035.1c-.9-53.6 19.1-72.1 19.9-72.9l2 2.2c-.2.2-19.8 18.5-18.9 70.6l-3 .1z"></path><path fill="#425b2e" fill-rule="evenodd" d="M3213.9 915s25.6 68.4 85.4 102.8c0 0-60.6-41.9-74.6-41.2-.1 0-16.8-47.7-10.8-61.6z" clip-rule="evenodd"></path><path fill="#741726" d="M2973.2 2362.6c-31.2 0-54.1-13.8-55.3-14.5l2.1-3.4c.3.2 34.3 20.7 74.7 11.6l.9 3.9c-7.8 1.7-15.3 2.4-22.4 2.4zM2950.7 2407.3c-25.2 0-40.4-15.5-40.6-15.8l2.9-2.7c1.3 1.3 31.9 32.6 80.3-.3l2.2 3.3c-17.1 11.6-32.2 15.5-44.8 15.5zM3265.8 2369.2c-27.8 0-51.5-12.7-52.8-13.4l1.9-3.5c.4.2 42.5 22.7 78.9 7.7l1.5 3.7c-9.9 4-19.9 5.5-29.5 5.5zM3256.6 2406.9c-25.1 0-43.7-15-44-15.2l2.5-3.1c1.6 1.3 39.7 31.9 80.4 0l2.5 3.1c-14.5 11.4-28.8 15.2-41.4 15.2zM3136.4 745.9c-13.2 0-16.5-9.2-16.5-9.3l3.8-1.3c.1.4 3.8 9.9 21 5.5l1 3.9c-3.6.8-6.6 1.2-9.3 1.2z"></path><path fill="#425b2e" d="m2868.9 1012.4-5.2-.8c2.8-17.9 21.6-29.5 24.6-30.4l1.5 5.1c-1.9.6-18.5 10.7-20.9 26.1z"></path><path fill="#741726" d="M3089.2 1017.8c-.5-30.4 11.4-51.5 11.9-52.4l3.5 2c-.1.2-11.8 21.1-11.3 50.4h-4.1z"></path><path fill="#fff" d="M2511.1 1862.5h976.8v3h-976.8z" transform="rotate(-83.471 2999.442 1864.06)"></path><path fill="#fff" d="M2780 2410.6h123.8v5.3H2780z" transform="rotate(-18.323 2842.244 2413.388)"></path></g></svg>